<svg width="29" height="18" viewBox="0 0 29 18" fill="none" xmlns="http://www.w3.org/2000/svg">
<path d="M1.59438 7.33418L22.6403 7.33418L18.0166 2.71046C17.3788 2.0727 17.3788 1.11607 18.0166 0.478316C18.6543 -0.159439 19.611 -0.159439 20.2487 0.478316L27.5829 7.8125C28.2207 8.45026 28.2207 9.40689 27.5829 10.0446L20.2487 17.3788C19.611 18.0166 18.6543 18.0166 18.0166 17.3788C17.3788 16.7411 17.3788 15.7844 18.0166 15.1467L22.6403 10.523L1.59438 10.523C0.797185 10.523 -9.53674e-06 9.8852 -9.53674e-06 8.92857C-9.53674e-06 7.97194 0.797185 7.33418 1.59438 7.33418Z" fill="#B5D2FB"/>
</svg>
